<?xml version="1.0" encoding="utf-8"?>
<!-- Generator: Adobe Illustrator 16.0.4, SVG Export Plug-In . SVG Version: 6.00 Build 0)  -->
<!DOCTYPE svg PUBLIC "-//W3C//DTD SVG 1.1//EN" "http://www.w3.org/Graphics/SVG/1.1/DTD/svg11.dtd">
<svg version="1.1" id="Layer_1" xmlns="http://www.w3.org/2000/svg" xmlns:xlink="http://www.w3.org/1999/xlink" x="0px" y="0px"
	 width="92px" height="92px" viewBox="0 0 92 92" enable-background="new 0 0 92 92" xml:space="preserve">
<path id="XMLID_1299_" fill="#227268" d="M92,22.9c0-0.1,0-0.3,0-0.4s0-0.2,0-0.3c0-0.1-0.1-0.2-0.1-0.4c0-0.1-0.101-0.3-0.101-0.4
	s-0.1-0.2-0.2-0.3c-0.1-0.1-0.1-0.3-0.199-0.4v-0.1c-0.101-0.1-0.101-0.1-0.2-0.2c-0.101-0.1-0.2-0.2-0.3-0.3
	C90.8,20,90.7,19.9,90.6,19.9c-0.1-0.1-0.199-0.2-0.3-0.2c-0.1-0.1-0.2-0.1-0.3-0.2s-0.2-0.1-0.3-0.2c-0.101,0-0.3-0.1-0.4-0.1
	c-0.1,0-0.2-0.1-0.399-0.1c-0.101,0-0.301,0-0.4,0s-0.2,0-0.3,0H4c-0.1,0-0.2,0-0.3,0c-0.1,0-0.3,0-0.4,0c-0.1,0-0.2,0.1-0.4,0.1
	c-0.1,0-0.3,0.1-0.4,0.1s-0.2,0.1-0.3,0.2c-0.1,0.1-0.2,0.1-0.3,0.2c-0.1,0.1-0.2,0.1-0.3,0.2s-0.2,0.2-0.3,0.2
	c-0.1,0.1-0.2,0.2-0.3,0.3s-0.1,0.1-0.2,0.2v0.1c-0.1,0.1-0.2,0.3-0.2,0.4c-0.1,0.1-0.1,0.2-0.2,0.3s-0.1,0.2-0.1,0.4
	c0,0.1-0.1,0.2-0.1,0.4c0,0.1,0,0.2,0,0.3s0,0.3,0,0.4V23v46c0,2.2,1.8,4,4,4h84c2.2,0,4-1.8,4-4L92,22.9C92,23,92,22.9,92,22.9z
	 M75.9,27L46,49.2L16.1,27H75.9z M8,65V31l35.6,26.4c0.7,0.5,1.5,0.8,2.4,0.8c0.9,0,1.7-0.3,2.4-0.8L84,31v34H8z"/>
</svg>
